<mxfile host="app.diagrams.net" modified="2023-11-30T21:28:51.582Z" agent="Mozilla/5.0 (Windows NT 10.0; Win64; x64) AppleWebKit/537.36 (KHTML, like Gecko) Chrome/119.0.0.0 Safari/537.36" version="22.1.5" etag="4wP4q4GtJhiXHkjsH6-x" type="github">
  <diagram name="Page-1" id="U2HVP1s9vvslaOGl9e9Q">
    <mxGraphModel>
      <root>
        <mxCell id="0" />
        <mxCell id="1" parent="0" />
      </root>
    </mxGraphModel>
  </diagram>
</mxfile>
